<svg width="18" height="18" viewBox="0 0 18 18" fill="none" xmlns="http://www.w3.org/2000/svg">
<path d="M10.6571 15.6981C10.6834 15.7636 10.7291 15.8195 10.788 15.8583C10.847 15.897 10.9164 15.9168 10.9869 15.915C11.0574 15.9132 11.1257 15.8899 11.1826 15.8481C11.2395 15.8064 11.2822 15.7483 11.3051 15.6815L15.8 2.5425C15.8222 2.48123 15.8264 2.41492 15.8122 2.35133C15.798 2.28775 15.766 2.22951 15.72 2.18345C15.6739 2.13738 15.6157 2.10539 15.5521 2.09121C15.4885 2.07703 15.4222 2.08125 15.3609 2.10338L2.22188 6.59832C2.15515 6.6212 2.09701 6.66396 2.05527 6.72084C2.01354 6.77772 1.9902 6.846 1.98839 6.91653C1.98659 6.98706 2.0064 7.05645 2.04517 7.11539C2.08394 7.17433 2.13981 7.22001 2.20529 7.24628L7.68911 9.44534C7.86246 9.51475 8.01997 9.61854 8.15213 9.75046C8.28429 9.88239 8.38837 10.0397 8.45809 10.2129L10.6571 15.6981Z" stroke="#F2F6FF" stroke-width="1.38306" stroke-linecap="round" stroke-linejoin="round"/>
<path d="M15.7177 2.18637L8.1524 9.751" stroke="#F2F6FF" stroke-width="1.38306" stroke-linecap="round" stroke-linejoin="round"/>
</svg>
