<svg width="17" height="16" viewBox="0 0 17 16" fill="none" xmlns="http://www.w3.org/2000/svg">
<path d="M10.605 14V8.66667C10.605 8.48986 10.5348 8.32029 10.4098 8.19526C10.2848 8.07024 10.1152 8 9.93837 8H7.27171C7.0949 8 6.92533 8.07024 6.8003 8.19526C6.67528 8.32029 6.60504 8.48986 6.60504 8.66667V14" stroke="#333333" stroke-width="1.33333" stroke-linecap="round" stroke-linejoin="round"/>
<path d="M2.60504 6.66667C2.605 6.47271 2.64726 6.28108 2.7289 6.10514C2.81054 5.92921 2.92957 5.7732 3.07771 5.648L7.74437 1.64867C7.98503 1.44527 8.28995 1.33368 8.60504 1.33368C8.92014 1.33368 9.22505 1.44527 9.46571 1.64867L14.1324 5.648C14.2805 5.7732 14.3995 5.92921 14.4812 6.10514C14.5628 6.28108 14.6051 6.47271 14.605 6.66667V12.6667C14.605 13.0203 14.4646 13.3594 14.2145 13.6095C13.9645 13.8595 13.6253 14 13.2717 14H3.93837C3.58475 14 3.24561 13.8595 2.99557 13.6095C2.74552 13.3594 2.60504 13.0203 2.60504 12.6667V6.66667Z" stroke="#333333" stroke-width="1.33333" stroke-linecap="round" stroke-linejoin="round"/>
</svg>
