<svg width="16" height="16" viewBox="0 0 16 16" fill="none" xmlns="http://www.w3.org/2000/svg">
<g clip-path="url(#clip0_73_28)">
<path d="M6.6665 9.77333V10.8573C6.66399 11.0857 6.60283 11.3097 6.48889 11.5077C6.37496 11.7057 6.21206 11.8711 6.01584 11.988C5.59927 12.2965 5.2604 12.698 5.02616 13.1604C4.79192 13.6229 4.66878 14.1336 4.6665 14.652" stroke="#F2F6FF" stroke-width="1.33333" stroke-linecap="round" stroke-linejoin="round"/>
<path d="M9.3335 9.77333V10.8573C9.33601 11.0857 9.39717 11.3097 9.51111 11.5077C9.62505 11.7057 9.78794 11.8711 9.98416 11.988C10.4007 12.2965 10.7396 12.698 10.9738 13.1604C11.2081 13.6229 11.3312 14.1336 11.3335 14.652" stroke="#F2F6FF" stroke-width="1.33333" stroke-linecap="round" stroke-linejoin="round"/>
<path d="M12 6.00001H13C13.442 6.00001 13.866 5.82441 14.1785 5.51185C14.4911 5.19929 14.6667 4.77537 14.6667 4.33334C14.6667 3.89131 14.4911 3.46739 14.1785 3.15483C13.866 2.84227 13.442 2.66667 13 2.66667H12" stroke="#F2F6FF" stroke-width="1.33333" stroke-linecap="round" stroke-linejoin="round"/>
<path d="M2.6665 14.6667H13.3332" stroke="#F2F6FF" stroke-width="1.33333" stroke-linecap="round" stroke-linejoin="round"/>
<path d="M4 6C4 7.06086 4.42143 8.07828 5.17157 8.82842C5.92172 9.57857 6.93913 10 8 10C9.06087 10 10.0783 9.57857 10.8284 8.82842C11.5786 8.07828 12 7.06086 12 6V1.99999C12 1.82318 11.9298 1.65361 11.8047 1.52859C11.6797 1.40357 11.5101 1.33333 11.3333 1.33333H4.66667C4.48986 1.33333 4.32029 1.40357 4.19526 1.52859C4.07024 1.65361 4 1.82318 4 1.99999V6Z" stroke="#F2F6FF" stroke-width="1.33333" stroke-linecap="round" stroke-linejoin="round"/>
<path d="M4.00016 6.00001H3.00016C2.55814 6.00001 2.13421 5.82441 1.82165 5.51185C1.50909 5.19929 1.3335 4.77537 1.3335 4.33334C1.3335 3.89131 1.50909 3.46739 1.82165 3.15483C2.13421 2.84227 2.55814 2.66667 3.00016 2.66667H4.00016" stroke="#F2F6FF" stroke-width="1.33333" stroke-linecap="round" stroke-linejoin="round"/>
</g>
<defs>
<clipPath id="clip0_73_28">
<rect width="16" height="16" fill="white"/>
</clipPath>
</defs>
</svg>
