<svg width="17" height="16" viewBox="0 0 17 16" fill="none" xmlns="http://www.w3.org/2000/svg">
<path d="M4.60502 6H3.60502C3.16299 6 2.73907 5.82441 2.42651 5.51185C2.11395 5.19929 1.93835 4.77536 1.93835 4.33333C1.93835 3.89131 2.11395 3.46738 2.42651 3.15482C2.73907 2.84226 3.16299 2.66667 3.60502 2.66667H4.60502" stroke="#333333" stroke-width="1.33333" stroke-linecap="round" stroke-linejoin="round"/>
<path d="M12.605 6H13.605C14.0471 6 14.471 5.82441 14.7836 5.51185C15.0961 5.19929 15.2717 4.77536 15.2717 4.33333C15.2717 3.89131 15.0961 3.46738 14.7836 3.15482C14.471 2.84226 14.0471 2.66667 13.605 2.66667H12.605" stroke="#333333" stroke-width="1.33333" stroke-linecap="round" stroke-linejoin="round"/>
<path d="M3.27173 14.6667H13.9384" stroke="#333333" stroke-width="1.33333" stroke-linecap="round" stroke-linejoin="round"/>
<path d="M7.27173 9.77333V11.3333C7.27173 11.7 6.9584 11.9867 6.62506 12.14C5.8384 12.5 5.27173 13.4933 5.27173 14.6667" stroke="#333333" stroke-width="1.33333" stroke-linecap="round" stroke-linejoin="round"/>
<path d="M9.93835 9.77333V11.3333C9.93835 11.7 10.2517 11.9867 10.585 12.14C11.3717 12.5 11.9384 13.4933 11.9384 14.6667" stroke="#333333" stroke-width="1.33333" stroke-linecap="round" stroke-linejoin="round"/>
<path d="M12.605 1.33333H4.60504V6C4.60504 7.06086 5.02647 8.07828 5.77661 8.82843C6.52676 9.57857 7.54418 10 8.60504 10C9.66591 10 10.6833 9.57857 11.4335 8.82843C12.1836 8.07828 12.605 7.06086 12.605 6V1.33333Z" stroke="#333333" stroke-width="1.33333" stroke-linecap="round" stroke-linejoin="round"/>
</svg>
