<svg width="24" height="24" viewBox="0 0 24 24" fill="none" xmlns="http://www.w3.org/2000/svg">
<g clip-path="url(#clip0_9_28)">
<path d="M19 5V19H5V5H19ZM19 3H5C4.46957 3 3.96086 3.21071 3.58579 3.58579C3.21071 3.96086 3 4.46957 3 5V19C3 19.5304 3.21071 20.0391 3.58579 20.4142C3.96086 20.7893 4.46957 21 5 21H19C19.5304 21 20.0391 20.7893 20.4142 20.4142C20.7893 20.0391 21 19.5304 21 19V5C21 4.46957 20.7893 3.96086 20.4142 3.58579C20.0391 3.21071 19.5304 3 19 3Z" fill="#797979"/>
<path d="M12.11 10.47C12.1315 10.8327 12.0708 11.1957 11.9322 11.5316C11.7937 11.8676 11.581 12.1678 11.31 12.41C10.6649 12.8966 9.86616 13.1344 9.05999 13.08H8.34999V15.87H6.67999V7.99998H9.18999C9.96353 7.94691 10.7312 8.16626 11.36 8.61998C11.6208 8.84837 11.8244 9.13467 11.9547 9.45592C12.0849 9.77718 12.1381 10.1245 12.11 10.47ZM8.34999 11.72H8.88999C9.28381 11.7396 9.67334 11.6308 9.99999 11.41C10.132 11.3068 10.2359 11.1722 10.3023 11.0185C10.3687 10.8647 10.3954 10.6967 10.38 10.53C10.3946 10.3703 10.3734 10.2094 10.3181 10.0589C10.2627 9.90841 10.1746 9.77214 10.06 9.65998C9.77025 9.45135 9.41595 9.35215 9.05999 9.37998H8.34999V11.72Z" fill="#797979"/>
<path d="M17.32 14.0899C17.3342 14.3591 17.2835 14.6277 17.1721 14.8731C17.0607 15.1185 16.8919 15.3335 16.68 15.4999C16.1068 15.8588 15.4346 16.0268 14.76 15.9799C14.3846 15.985 14.0097 15.9549 13.64 15.8899C13.341 15.8366 13.0492 15.7494 12.77 15.6299V14.2799C13.0929 14.427 13.4274 14.5474 13.77 14.6399C14.0971 14.7233 14.4325 14.7703 14.77 14.7799C15.36 14.7799 15.66 14.6099 15.66 14.2699C15.6623 14.2113 15.6529 14.1528 15.6323 14.0978C15.6117 14.0429 15.5803 13.9926 15.54 13.9499C15.4221 13.8389 15.287 13.7478 15.14 13.6799L14.36 13.3199C14.0056 13.1819 13.6697 13.0005 13.36 12.7799C13.1609 12.6334 12.9997 12.4414 12.89 12.2199C12.7839 11.9704 12.7327 11.701 12.74 11.4299C12.7306 11.1878 12.7825 10.9472 12.8909 10.7304C12.9993 10.5137 13.1606 10.3278 13.36 10.1899C13.8884 9.86816 14.5022 9.7147 15.12 9.74995C15.8503 9.75037 16.5713 9.91438 17.23 10.2299L16.74 11.4099C16.466 11.2882 16.1856 11.1813 15.9 11.0899C15.6408 11.0103 15.3711 10.9698 15.1 10.9699C14.61 10.9699 14.37 11.0999 14.37 11.3599C14.3741 11.4385 14.3984 11.5147 14.4404 11.5813C14.4824 11.6478 14.5408 11.7024 14.61 11.7399C14.9265 11.9329 15.2615 12.0937 15.61 12.2199C15.9623 12.3582 16.2978 12.536 16.61 12.7499C16.8129 12.8992 16.9774 13.0946 17.09 13.3199C17.2278 13.5542 17.3067 13.8185 17.32 14.0899Z" fill="#797979"/>
</g>
<defs>
<clipPath id="clip0_9_28">
<rect width="24" height="24" fill="white"/>
</clipPath>
</defs>
</svg>
