<svg width="17" height="16" viewBox="0 0 17 16" fill="none" xmlns="http://www.w3.org/2000/svg">
<path d="M1.93835 14C1.93826 13.1375 2.14736 12.2878 2.54774 11.5238C2.94812 10.7598 3.52781 10.1043 4.23712 9.61354C4.94643 9.12277 5.76419 8.81136 6.62028 8.70601C7.47636 8.60066 8.34522 8.70451 9.15235 9.00867" stroke="#333333" stroke-width="1.33333" stroke-linecap="round" stroke-linejoin="round"/>
<path d="M14.857 11.084C15.1226 10.8184 15.2718 10.4582 15.2718 10.0827C15.2718 9.70709 15.1226 9.3469 14.857 9.08133C14.5914 8.81576 14.2312 8.66656 13.8557 8.66656C13.4801 8.66656 13.1199 8.81576 12.8543 9.08133L10.181 11.756C10.0225 11.9144 9.90649 12.1102 9.84367 12.3253L9.28567 14.2387C9.26894 14.296 9.26794 14.3568 9.28277 14.4147C9.2976 14.4726 9.32772 14.5254 9.36997 14.5677C9.41222 14.61 9.46506 14.6401 9.52294 14.6549C9.58083 14.6697 9.64164 14.6687 9.69901 14.652L11.6123 14.094C11.8274 14.0312 12.0233 13.9152 12.1817 13.7567L14.857 11.084Z" stroke="#333333" stroke-width="1.33333" stroke-linecap="round" stroke-linejoin="round"/>
<path d="M7.27169 8.66667C9.11264 8.66667 10.605 7.17428 10.605 5.33333C10.605 3.49238 9.11264 2 7.27169 2C5.43074 2 3.93835 3.49238 3.93835 5.33333C3.93835 7.17428 5.43074 8.66667 7.27169 8.66667Z" stroke="#333333" stroke-width="1.33333" stroke-linecap="round" stroke-linejoin="round"/>
</svg>
