<svg width="24" height="24" viewBox="0 0 24 24" fill="none" xmlns="http://www.w3.org/2000/svg">
<path fill-rule="evenodd" clip-rule="evenodd" d="M12 6.03601C9.333 6.03601 7.667 7.36101 7 10.012C8 8.68701 9.167 8.19001 10.5 8.52101C11.261 8.71001 11.805 9.25901 12.406 9.86601C13.387 10.855 14.522 12 17 12C19.667 12 21.333 10.675 22 8.02401C21 9.34901 19.834 9.84601 18.5 9.51501C17.739 9.32601 17.195 8.77701 16.593 8.17001C15.613 7.18001 14.479 6.03601 12 6.03601ZM7 12C4.333 12 2.667 13.325 2 15.976C3 14.65 4.167 14.154 5.5 14.485C6.261 14.674 6.805 15.223 7.407 15.83C8.387 16.819 9.522 17.964 12.001 17.964C14.668 17.964 16.334 16.639 17.001 13.988C16.001 15.313 14.834 15.81 13.501 15.479C12.74 15.29 12.196 14.741 11.595 14.134C10.613 13.145 9.478 12 7 12Z" fill="#797979"/>
</svg>
