<svg width="24" height="24" viewBox="0 0 24 24" fill="none" xmlns="http://www.w3.org/2000/svg">
<g clip-path="url(#clip0_9_45)">
<path fill-rule="evenodd" clip-rule="evenodd" d="M22.53 6.24258C22.5816 6.62538 22.6104 7.03438 22.6104 7.47598C22.6104 9.58558 22.4148 9.70445 18.0324 22.3729C21.6 20.2921 24 16.4268 24 12C24 9.9132 23.4672 7.95138 22.53 6.24258ZM12.2112 13.05L8.61 23.5113C11.04 24.2265 13.6152 24.1537 15.9852 23.3209C15.9528 23.2693 15.924 23.2139 15.9 23.1551L12.2112 13.05ZM20.1012 11.3941C20.1012 9.91094 19.5684 8.88338 19.1112 8.08418C18.504 7.09538 17.9328 6.25931 17.9328 5.27051C17.9328 4.16771 18.7704 3.14062 19.9488 3.14062C20.0016 3.14062 20.052 3.1476 20.1036 3.15C17.9688 1.194 15.1248 0 12 0C7.8084 0 4.11961 2.1502 1.97401 5.4082C2.73841 5.4322 3.76439 5.44208 5.94479 5.27168C6.59159 5.23328 6.66721 6.18338 6.02161 6.25898C6.02161 6.25898 5.3712 6.33601 4.6476 6.37441L9.018 19.3729L11.6436 11.4961L9.77401 6.37324C9.12841 6.33604 8.5164 6.25898 8.5164 6.25898C7.8696 6.22058 7.9452 5.23211 8.592 5.27051C11.0724 5.46131 12.342 5.47571 14.9508 5.27051C15.5976 5.23211 15.6744 6.18218 15.0276 6.25898C15.0276 6.25898 14.376 6.33604 13.6536 6.37324L17.9904 19.2732C19.7028 13.5516 20.1012 12.5941 20.1012 11.3941ZM0 12C0 16.7496 2.76 20.8548 6.7632 22.8L1.0392 7.11621C0.373197 8.60901 0 10.26 0 12Z" fill="#797979"/>
</g>
<defs>
<clipPath id="clip0_9_45">
<rect width="24" height="24" fill="white"/>
</clipPath>
</defs>
</svg>
