<svg xmlns="http://www.w3.org/2000/svg" fill="none" width="210" height="73" viewBox="0 0 210 73">
  <path fill="#fff" d="M192.94 35.83v33.25a40.48 40.48 0 0 1-14.6 2.92 19.6 19.6 0 0 1-13-4.34c-3.46-2.9-5.19-6.93-5.19-12.1V35.83h9.59V55a6.65 6.65 0 0 0 2.09 5.47 8.35 8.35 0 0 0 5.29 2.27c2.11.12 4.23-.1 6.26-.68V35.83h9.56Z"/>
  <path fill="#fff" d="M208.91 25.59 179.81.16a.92.92 0 0 0-.64-.15.9.9 0 0 0-.63.15l-33.1 22.77a1.51 1.51 0 0 0-.64 1.24v6.4a1.52 1.52 0 0 0 1.52 1.52h8a1.53 1.53 0 0 0 1.53-1.52v-.13a1.5 1.5 0 0 1 .62-1.23l22.34-15.36 19 18a1.53 1.53 0 0 1 .62 1.23V57.2a1.52 1.52 0 0 0 1.57 1.52h8a1.52 1.52 0 0 0 1.52-1.52V26.83a1.51 1.51 0 0 0-.61-1.24ZM209.29 71.67H198.7v-10h10.59v10ZM9.41 31.57H0v-8.93h9.41v8.93ZM0 35.93h9.48V71H0V35.93Z"/>
  <path fill="#fff" d="M145.35 35.93h9.48V71h-9.48V35.93ZM55.66 46a5.68 5.68 0 0 0-4.2-1.6 5.8 5.8 0 0 0-4.23 1.7 6.6 6.6 0 0 0-1.69 4.9v20h-9.48V50.83c.05-2.38-.57-4.1-1.86-5.18A7.31 7.31 0 0 0 29.32 44c-1.7.07-3.39.38-5 .94V71h-9.44V38.2c6.08-2.13 10.88-3.2 14.41-3.2 5.88-.1 9.75 1.9 11.62 6 1.9-3.9 5.43-5.84 10.62-5.83 10.17 0 15.25 5.15 15.26 15.44V71h-9.48V51a6.7 6.7 0 0 0-1.65-5ZM106.87 53.48a17.85 17.85 0 0 1-5.33 13.28A18.16 18.16 0 0 1 88.28 72 18.4 18.4 0 0 1 70.9 60.69a17.74 17.74 0 0 1-1.29-7.21A17.74 17.74 0 0 1 74.9 40.1 18.52 18.52 0 0 1 88.28 35a18.27 18.27 0 0 1 13.33 5.15c3.5 3.4 5.25 7.85 5.26 13.33Zm-27.87 0a9 9 0 0 0 2.86 7 9.1 9.1 0 0 0 15.48-6.99c0-3.1-.9-5.48-2.72-7.12a9.18 9.18 0 0 0-6.38-2.47 9.45 9.45 0 0 0-6.38 2.53A8.93 8.93 0 0 0 79 53.48ZM110.19 22.57h9.48v13.29c1.67-.43 3.4-.66 5.12-.7a17 17 0 0 1 12.79 5.47 18.6 18.6 0 0 1 .2 25.6c-3.33 3.62-7.82 5.43-13.47 5.42-4.82.05-9.6-.78-14.12-2.46V22.57Zm9.48 39.75c1.54.23 3.09.36 4.64.4a8.3 8.3 0 0 0 6.61-2.86 9.3 9.3 0 0 0 2.39-6.35 9.18 9.18 0 0 0-2.88-6.71 9.38 9.38 0 0 0-6.75-2.7 12.2 12.2 0 0 0-4 .72l-.01 17.5Z"/>
</svg>
