<svg width="18" height="18" viewBox="0 0 18 18" fill="none" xmlns="http://www.w3.org/2000/svg">
<path fill-rule="evenodd" clip-rule="evenodd" d="M1.22784 16.2298C0.549722 16.2298 0 15.6801 0 15.002V5.9978C0 5.31968 0.549722 4.76995 1.22784 4.76995H5.72994C9.82275 4.76995 9.82275 10.0906 7.36706 10.0906C9.82275 10.0906 10.6413 16.2298 5.72994 16.2298H1.22784ZM2.86497 9.68133C2.63893 9.68133 2.45569 9.49805 2.45569 9.27205V6.81636C2.45569 6.59032 2.63893 6.40708 2.86497 6.40708H4.91138C4.91138 6.40708 6.5485 6.40708 6.5485 8.04421C6.5485 9.68133 4.91138 9.68133 4.91138 9.68133H2.86497ZM2.86497 11.3185C2.63893 11.3185 2.45569 11.5017 2.45569 11.7277V14.1834C2.45569 14.4094 2.63893 14.5927 2.86497 14.5927H5.72994C5.72994 14.5927 6.95778 14.5927 6.95778 12.9556C6.95778 11.3185 5.72994 11.3185 5.72994 11.3185H2.86497Z" fill="#333333"/>
<path fill-rule="evenodd" clip-rule="evenodd" d="M16.7798 12.1398C17.4583 12.1398 18.0258 11.5803 17.8874 10.9161C16.8678 6.02142 9.75142 6.47328 9.8228 12.1398C9.87723 16.4559 15.9083 17.84 17.6841 13.9295C17.9663 13.3082 17.3329 12.9553 16.811 12.9553C16.3472 12.9553 15.9876 13.3831 15.6913 13.7399C14.8383 14.7672 12.248 14.6926 11.906 12.5579C11.8696 12.3314 12.0578 12.1398 12.2872 12.1398H16.7798ZM12.1298 10.4996C12.0092 10.4996 11.9313 10.3733 11.9957 10.2713C12.863 8.89747 14.9481 8.91229 15.8309 10.2698C15.8971 10.3717 15.8193 10.4996 15.6978 10.4996H12.1298Z" fill="#333333"/>
<path d="M12.2784 5.58852C11.8263 5.58852 11.4598 5.955 11.4598 6.40708C11.4598 6.85915 11.8263 7.22564 12.2784 7.22564H15.5527C16.0047 7.22564 16.3712 6.85915 16.3712 6.40708C16.3712 5.955 16.0047 5.58852 15.5527 5.58852H12.2784Z" fill="#333333"/>
</svg>
