<svg width="15" height="24" viewBox="0 0 15 24" fill="none" xmlns="http://www.w3.org/2000/svg">
<path d="M12.179 9.0585C14.0367 8.6185 14.7049 7.04185 14.8067 6.30853C9.2579 6.35742 8.92994 2.39746 9.45957 0.411371C7.92162 -0.199734 4.17352 -0.59084 1.48466 2.73357C-1.2042 6.05798 0.364299 11.3156 1.48466 13.4137C1.59669 13.0674 2.0674 12.1631 3.71519 11.1668C5.45683 10.1138 5.73183 8.49832 5.79294 7.65296C5.2735 7.23537 4.19185 6.36964 4.02074 6.24742C3.84963 6.1252 3.96981 5.95205 4.05129 5.88076L4.41796 5.5752C5.56683 7.57963 7.3207 7.34741 8.05403 6.98074C10.0585 6.00298 11.6392 7.95851 12.179 9.0585Z" fill="#5D13E7"/>
<path d="M8.17625 8.99739L6.49571 8.01962C6.20271 10.9082 4.58717 11.6745 3.83741 12.0835C1.48466 13.3668 1.50503 16.1433 1.94298 17.5998C2.57853 15.8398 3.65408 15.0943 4.41796 14.6195C7.3253 12.8127 8.43324 11.1668 8.17625 8.99739Z" fill="#5D13E7"/>
<path d="M9.33735 18.1028C13.9084 13.8007 10.8753 10.3826 8.97069 9.30294C8.97069 12.4054 8.43324 13.261 4.41796 15.8418C1.41132 18.0906 1.37262 22.2176 1.7291 24C2.76798 20.3639 6.64849 20.7776 9.33735 18.1028Z" fill="#5D13E7"/>
</svg>
